<svg xmlns="http://www.w3.org/2000/svg" viewBox="0 0 270 58">
	<defs>
		<linearGradient id="myGradient" gradientTransform="rotate(0)">
			<stop offset="0.03%" stop-color="rgb(128, 0, 128)" />
			<stop offset="99.96%" stop-color="rgb(255, 192, 203)" />
		</linearGradient>
	</defs>
	<path fill="url(#myGradient)"
		d="M79.56 22.63c-4.72 2.37-9.45 4.73-14.16 7.1-1.83.92-3.64 1.86-5.47 2.79-.61.31-1.04 1.77-.69 2.36.19.32.42.08.6-.01 1.21-.59 2.41-1.2 3.62-1.8.83-.41.89-.37.89.58v8.78c0 1.83-.65 3.41-2 4.63-.74.67-1.1 1.34-.99 2.4.21 2.06.22 4.13.33 6.2.06 1.15-.48 1.78-1.61 1.79-2.67.01-5.33.01-8 0-1.15 0-1.57-.45-1.58-1.62-.02-1.65-.01-1.64-1.63-1.24-7.45 1.84-14.79 1.52-21.97-1.24-3.74-1.43-7.08-3.53-9.86-6.45-1.15-1.21-1.8-2.64-1.81-4.33-.01-2.98-.01-5.96 0-8.93 0-.93.07-.97.91-.55 7.55 3.77 15.1 7.54 22.64 11.34.73.37 1.3.36 2.02 0 3.71-1.9 7.45-3.74 11.18-5.61.72-.36 1.15-1.67.79-2.37-.17-.34-.4-.13-.59-.04-1.07.52-2.13 1.06-3.2 1.59-2.85 1.41-5.71 2.81-8.56 4.24-.44.22-.8.22-1.24 0-7.83-3.91-15.67-7.79-23.5-11.71-5.24-2.61-10.46-5.26-15.68-7.9v-.16c.33-.14.67-.27.99-.43 12.62-6.3 25.24-12.6 37.85-18.93.68-.34 1.2-.34 1.88 0 12.61 6.33 25.23 12.63 37.84 18.94.32.16.66.28 1 .42v.16zM56.87 36.15c0-2.07-.03-4.14.01-6.21.01-.7-.23-1.07-.85-1.37-3.86-1.89-7.7-3.83-11.55-5.74-.61-.3-1.23-.55-1.24-1.4 0-.28-.26-.49-.46-.7-1.27-1.32-4.03-1.5-5.61-.36-1.33.96-1.29 2.43.13 3.28 1.3.78 2.7.88 4.11.39.51-.18.93-.15 1.41.09 3.75 1.87 7.51 3.74 11.28 5.57.67.33.94.72.93 1.48-.04 3.6-.02 7.2-.02 10.8 0 1.19 0 1.21-1.21 1.35-.75.09-.59.65-.63 1.11-.04.46.11.74.64.74 1.48-.01 2.95-.01 4.43 0 .46 0 .63-.22.64-.67.03-1.04-.06-1.2-1.09-1.17-.74.02-.94-.28-.93-.96.03-2.09.01-4.16.01-6.23zm-.85 19.1c.83 0 1.66-.03 2.49.01.65.03.87-.22.84-.86-.13-2.43-.23-4.86-.34-7.29-.02-.56-.25-.84-.86-.83-1.42.03-2.85.02-4.27 0-.53-.01-.73.21-.75.73-.1 2.58-.22 5.17-.35 7.75-.02.48.28.48.6.48.88.01 1.76 0 2.64.01zM105.55 30.11c0-.37 0-.65.09-2.15-.55 1.14-1.29 2.19-2.8 3.94-1.63 1.94-4.09 4.19-6.56 5.94-1.26.92-2.34 1.6-4.77 2.99-.65-1.23-1.02-1.69-2.15-2.65 3.69-1.66 6.86-3.88 10-6.96 1.51-1.51 3.35-3.75 4.25-5.26l-8.83.03c-1.82 0-2.58.03-3.91.15v-3.2c1.17.18 1.75.22 4 .22l10.59-.03-.03-2.4c-.03-1.79-.03-1.97-.15-2.99h3.42c-.09.74-.12 1.32-.12 2.06v.86l.03 2.46h3.23c1.88 0 2.68-.06 3.69-.22v3.17c-.8-.09-2.09-.12-3.66-.12h-3.23l.19 14c.03 2.25.06 2.92.18 3.91h-3.51c.12-.98.15-1.42.15-3.23v-.62l-.09-9.57v-.33zM141.77 20.42c-.03-.15-.03-.34-.03-.49 0-1.97 1.57-3.57 3.54-3.57s3.57 1.6 3.57 3.57-1.6 3.57-3.57 3.57c-.34 0-.68-.06-.98-.15-.06.15-.12.37-.18.65-1.54 5.85-3.94 10.03-7.66 13.51-2.77 2.59-5.48 4.25-9.79 6.03-.68-1.38-1.05-1.85-2.22-3.02 2.74-.86 4.52-1.69 6.83-3.2 4.86-3.2 7.88-7.63 9.48-13.91h-14.68c-2.06 0-2.89.06-4.09.22v-3.45c1.23.19 2.09.25 4.15.25h15.63zm1.44-.49c0 1.14.92 2.09 2.06 2.09s2.09-.95 2.09-2.09-.92-2.09-2.09-2.09c-1.13-.01-2.06.95-2.06 2.09zM175.28 20.42c-.4.09-.4.12-1.14.37-2.62.89-3.85 1.2-6.59 1.75-.03 3.23-.06 5.08-.06 5.54h6.34c2.4 0 2.99-.03 4.06-.22v3.2c-1.08-.12-1.85-.15-4.03-.15h-6.59c-.28 2.74-.92 4.86-2.03 6.71-1.08 1.79-2.86 3.51-4.99 4.89-.86.55-1.45.86-2.8 1.51-.77-1.29-1.17-1.79-2.28-2.71 2.22-.83 3.42-1.48 4.83-2.65 2.46-2.06 3.66-4.37 4-7.76h-7.36c-2.55 0-2.99 0-4.19.15v-3.2c1.08.18 1.85.22 4.22.22h7.57c.06-1.08.09-2.8.09-5.05-2.65.4-4.25.55-8.77.77-.22-1.17-.37-1.57-.98-2.86.92.03 1.38.06 1.88.06 4.03 0 9.29-.74 13.08-1.85 1.75-.52 2.59-.86 3.63-1.48l2.11 2.76zM188.2 25.62c-.22-1.26-.31-1.57-.65-2.59l3.11-.46c.06 1.02.09 1.14.37 2.65l.4 2.19 9.08-1.51c1.29-.22 1.75-.31 2.34-.55l1.78 1.6c-.28.43-.4.65-.74 1.45-1.35 3.32-3.14 5.57-6 7.66-.92-.95-1.29-1.23-2.4-1.82 2.34-1.42 3.75-2.86 5.11-5.2l.34-.62c-.25.09-.62.15-1.02.22l-8 1.35 2 10.56c.46 2.31.46 2.31.8 3.35l-3.29.58c-.03-1.11-.09-1.51-.43-3.45l-1.94-10.59-2.43.4c-1.26.22-2.09.4-3.08.71l-.55-2.94c1.11-.03 1.88-.12 3.08-.31l2.52-.43-.4-2.25zM222.69 24.79c-1.02.8-1.72 1.35-3.02 2.15-.43-.86-.86-1.51-1.32-1.97-.43-.03-.65-.03-.95-.03h-.92c.74 1.97 1.63 3.51 3.42 5.69-.62.74-.95 1.29-1.39 2.28-1.17-1.88-1.51-2.58-2.31-4.65.06 1.02.12 2.77.12 4.43v8.56c0 1.63.06 2.77.18 3.69h-3.02c.15-.92.22-2.12.22-3.69v-7.33c0-1.2.06-2.74.18-4.4-1.2 4.15-1.63 5.29-3.2 8.12-.58-1.35-.86-1.88-1.54-2.68 1.75-2.46 3.54-6.62 4.25-10.03h-1.42c-.89 0-1.54.03-2.09.12v-2.8c.55.09 1.11.12 2.09.12h1.69v-2.65c0-1.66-.03-2.43-.15-3.2h2.95c-.12.8-.15 1.66-.15 3.17v2.68h1.05c.8 0 1.23-.03 1.75-.12v1.91c3.23-1.94 5.35-4.12 7.11-7.29h2.89c.92 1.57 1.85 2.59 3.54 4.03 1.85 1.54 3.35 2.46 5.76 3.51-.58.8-.92 1.42-1.42 2.55-1.51-.8-2.46-1.38-3.69-2.25v1.72c-.83-.06-1.38-.09-2.58-.09h-1.63v2.19h4.09c1.26 0 1.97-.03 2.74-.09-.06.86-.09 1.54-.09 2.31v3.48c0 1.11.03 1.6.09 2.34-.89-.09-1.6-.12-2.92-.12h-3.39c1.79 2.8 4.65 4.68 8.52 5.63-.58.86-.98 1.57-1.45 2.74-4.28-1.6-7.2-3.97-8.96-7.2-1.42 3.42-3.97 5.57-8.43 7.17-.49-1.14-.89-1.78-1.66-2.58 4.25-1.02 6.52-2.68 7.79-5.76h-2.65c-1.2 0-1.91.03-2.8.12.06-.65.09-1.2.09-1.94v-4.09c0-.92-.03-1.42-.09-2.09.83.09 1.14.09 2.68.09h3.85v-2.19h-1.2c-1.23 0-1.72.03-2.62.09v-1.65zm-.06 5.97v3.48h3.48c.22-1.14.28-1.72.34-3.48h-3.82zm8.1-6.77c.74 0 1.08 0 1.57-.03-2-1.57-2.92-2.55-4.59-4.86-1.29 2.09-2.22 3.2-4.03 4.86.58.03.92.03 1.63.03h5.42zm-1.7 6.77c-.06 1.51-.15 2.25-.34 3.48h4.59v-3.48h-4.25zM254.54 28.08h-4.89c-1.39 0-2.19.03-3.11.15v-2.8c.8.09 1.72.15 3.11.15h12.16c1.38 0 2.31-.06 3.11-.15v2.8c-.8-.09-1.69-.15-3.11-.15h-4.59v4.37h5.88c1.35 0 2.19-.06 2.99-.18v2.8c-.92-.12-1.69-.15-2.99-.15h-5.88v5.91c1.29.19 3.11.31 4.99.31 2.12 0 4.25-.09 7.14-.34-.46 1.05-.65 1.72-.8 2.95-2.25.06-3.63.09-5.79.09-4.71 0-8.06-.58-10.34-1.82-1.75-.92-3.05-2.15-4.03-3.79-1.23 2.62-2.31 4.19-4.4 6.43-.71-.95-1.05-1.26-2.22-2.09 2.12-2.03 3.2-3.48 4.25-5.79.95-2.06 1.69-4.96 1.69-6.56l2.92.55c-.12.49-.12.49-.4 1.75-.12.46-.46 1.79-.83 2.92.77 1.42 1.11 1.91 1.97 2.71.92.86 1.82 1.42 3.17 1.94V28.08zm-.49-9.42c0-.74-.03-1.2-.18-1.94h3.23c-.12.68-.18 1.17-.18 1.94v1.29h8.53c1.2 0 2.19-.03 3.29-.12-.09.68-.12 1.35-.12 2.19v2.22c0 .92.03 1.63.12 2.34h-2.8v-4.06h-20.5v4.06h-2.83c.09-.77.12-1.32.12-2.34v-2.22c0-.77-.03-1.57-.12-2.19 1.14.09 2.09.12 3.26.12h8.19v-1.29z" />
</svg>