<svg xmlns="http://www.w3.org/2000/svg" viewBox="0 0 270 60">
	<path
		d="M80.06 24.42c-4.72 2.37-9.45 4.73-14.16 7.1-1.83.92-3.64 1.86-5.47 2.79-.61.31-1.04 1.77-.69 2.36.19.32.42.08.6-.01 1.21-.59 2.41-1.2 3.62-1.8.83-.41.89-.37.89.58v8.78c0 1.83-.65 3.41-2 4.63-.74.67-1.1 1.34-.99 2.4.21 2.06.22 4.13.33 6.2.06 1.15-.48 1.78-1.61 1.79-2.67.01-5.33.01-8 0-1.15 0-1.57-.45-1.58-1.62-.02-1.65-.01-1.64-1.63-1.24-7.45 1.84-14.79 1.52-21.97-1.24-3.74-1.43-7.08-3.53-9.86-6.45-1.15-1.21-1.8-2.64-1.81-4.33-.01-2.98-.01-5.96 0-8.93 0-.93.07-.97.91-.55 7.55 3.77 15.1 7.54 22.64 11.34.73.37 1.3.36 2.02 0 3.71-1.9 7.45-3.74 11.18-5.61.72-.36 1.15-1.67.79-2.37-.17-.34-.4-.13-.59-.04-1.07.52-2.13 1.06-3.2 1.59-2.85 1.41-5.71 2.81-8.56 4.24-.44.22-.8.22-1.24 0-7.83-3.91-15.67-7.79-23.5-11.71C10.95 29.7 5.73 27.05.51 24.41v-.16c.33-.14.67-.27.99-.43 12.62-6.31 25.24-12.61 37.85-18.94.68-.34 1.2-.34 1.88 0 12.61 6.33 25.23 12.63 37.84 18.94.32.16.66.28 1 .42-.01.08-.01.13-.01.18zM57.37 37.94c0-2.07-.03-4.14.01-6.21.01-.7-.23-1.07-.85-1.37-3.86-1.89-7.7-3.83-11.55-5.74-.61-.3-1.23-.55-1.24-1.4 0-.28-.26-.49-.46-.7-1.27-1.32-4.03-1.5-5.61-.36-1.33.96-1.29 2.43.13 3.28 1.3.78 2.7.88 4.11.39.51-.18.93-.15 1.41.09 3.75 1.87 7.51 3.74 11.28 5.57.67.33.94.72.93 1.48-.04 3.6-.02 7.2-.02 10.8 0 1.19 0 1.21-1.21 1.35-.75.09-.59.65-.63 1.11-.04.46.11.74.64.74 1.48-.01 2.95-.01 4.43 0 .46 0 .63-.22.64-.67.03-1.04-.06-1.2-1.09-1.17-.74.02-.94-.28-.93-.96.03-2.08.01-4.16.01-6.23zm-.85 19.1c.83 0 1.66-.03 2.49.01.65.03.87-.22.84-.86-.13-2.43-.23-4.86-.34-7.29-.02-.56-.25-.84-.86-.83-1.42.03-2.85.02-4.27 0-.53-.01-.73.21-.75.73-.1 2.58-.22 5.17-.35 7.75-.02.48.28.48.6.48.88.01 1.76.01 2.64.01zM97.19 2.43c-.09.11-.09.13-.16.27-.02.02-.05.07-.11.18l-.24.47c-.67 1.4-1.84 3.11-3.04 4.43-.85.96-1.49 1.54-2.74 2.53-.38-.65-.69-1.05-1.18-1.53 2.04-1.4 3.45-2.87 4.6-4.78.58-.98.87-1.65.98-2.27l1.89.7zm6.87 15.37c-.49-.98-.65-1.31-1-1.93-3.18.49-6.34.82-9.9 1.02-1.42.07-1.54.09-2.09.18l-.35-1.94c.44.02.94.04 1.47.04.31 0 .36 0 .91-.02 1.76-3.02 3.36-6.69 3.78-8.65l1.98.55c-.13.24-.18.36-.35.8-.85 2.2-2.36 5.36-3.45 7.23 3.16-.16 4.71-.29 7.16-.65-.87-1.38-1.33-2.02-2.49-3.43l1.47-.84c1.78 2.24 3.25 4.45 4.45 6.69l-1.59.95zm-3-16.1c.27.96 1.11 2.42 2.04 3.6 1.05 1.33 2.13 2.27 3.85 3.4-.53.58-.78.94-1.16 1.65-1.56-1.22-2.27-1.87-3.22-2.94a20.137 20.137 0 01-2.78-4.16c-.18-.42-.31-.65-.42-.82l1.69-.73zM110.78 4.37c.4.07.76.09 1.45.09h3.34c.76 0 1.05-.02 1.45-.07v1.56c-.42-.04-.69-.05-1.34-.05h-3.45c-.64 0-1 .02-1.45.07v-1.6zm.62-2.52c.44.07.73.09 1.4.09h2.42c.67 0 .95-.02 1.4-.09v1.54c-.44-.05-.82-.07-1.4-.07h-2.42c-.6 0-.98.02-1.4.07V1.85zm.05 16.05c.05-.58.09-1.18.09-1.76V13.5c0-.58-.02-.96-.07-1.45.44.05.78.07 1.45.07h2.34c.65 0 .98-.02 1.27-.05-.04.31-.05.69-.05 1.36v2.78c0 .67.02 1.07.07 1.45h-1.47v-.71h-2.11v.94h-1.52zm.02-10.85c.33.04.58.05 1.18.05h2.76c.6 0 .85-.02 1.15-.05V8.5c-.38-.04-.62-.05-1.15-.05h-2.76c-.56 0-.85.02-1.18.05V7.05zm0 2.52c.35.04.6.05 1.18.05h2.74c.6 0 .85-.02 1.16-.05v1.45c-.33-.04-.64-.05-1.18-.05h-2.74c-.54 0-.78.02-1.16.05V9.57zm1.49 6.05h2.13V13.4h-2.13v2.22zm6.14-3.72c-.27 2.11-.49 3-1.2 4.76l-1.33-.76c.76-1.47 1.02-2.36 1.2-4.29l1.33.29zm-.82-7.51c1.04.35 1.38.47 2.13.78.18-.56.25-.91.33-1.65h-1.4c-.93 0-1.4.02-1.89.09V1.98c.47.07 1.15.11 1.93.11h5.67c.76 0 1.27-.02 1.73-.07-.05.27-.05.27-.13 1.78-.07 1.36-.27 3.13-.47 4.03-.31 1.51-.75 1.85-2.27 1.85-.47 0-.98-.02-1.38-.07-.09-.65-.15-.91-.38-1.54.49.11 1.04.18 1.58.18.6 0 .78-.15.96-.85.2-.75.31-1.94.4-3.87h-2.82c-.15 1.05-.24 1.47-.51 2.27.51.27.84.45 1.71.96l-.78 1.25c-.75-.51-1-.67-1.51-.94-.85 1.47-1.74 2.36-3.43 3.36-.35-.53-.6-.82-1.07-1.22 1.65-.82 2.51-1.56 3.22-2.82-.75-.33-1.18-.51-2.27-.89l.65-1.11zm2.86 11.27c0 .42.13.49.89.49.44 0 1.09-.04 1.27-.07.4-.07.51-.25.6-.93.05-.4.09-.87.09-1.45.55.25.85.38 1.42.49-.09 1.45-.24 2.2-.53 2.67-.33.56-.91.71-2.71.71-2.09 0-2.53-.22-2.53-1.27v-3.54c0-.51-.04-.93-.09-1.4h1.67c-.07.36-.09.65-.09 1.25v3.05zm.14-6.54c1.31.91 1.78 1.33 2.87 2.47l-1.15 1c-.87-1.16-1.53-1.76-2.8-2.62l1.08-.85zm4.56 2.29c.96 1.49 1.38 2.31 2.09 4.07l-1.31.8c-.62-1.93-1.04-2.78-2-4.2l1.22-.67zM144.38 2.81c-.2.33-.29.51-.6 1.24-1.11 2.65-1.82 4.05-2.62 5.22 1.54 1.27 2.56 2.24 4.11 3.89l-1.45 1.56c-.93-1.24-2.02-2.34-3.78-3.89-.78 1.07-1.8 2.16-2.96 3.2-1.29 1.13-2.44 1.93-4.27 2.96-.42-.75-.65-1.02-1.33-1.58 2.96-1.45 5.14-3.23 7.11-5.8-1.49-1.22-3.27-2.42-4.85-3.27L135.07 5c1.31.78 2.13 1.31 2.98 1.93l1.62 1.15c.76-1.25 1.42-2.54 2.02-4.07.44-1.04.53-1.36.64-1.91l2.05.71zM151.88 14.52c1.47-.05 3.67-.62 5.34-1.36 2.27-1 3.98-2.38 5.42-4.42.82-1.2 1.35-2.18 1.91-3.67.6.75.84.96 1.58 1.49-1.51 3.29-3.22 5.4-5.67 7.05-1.84 1.25-4.09 2.14-6.87 2.73-.69.15-.76.16-1.15.29l-.56-2.11zm1.38-11.27c2.07 1.29 3.22 2.16 4.58 3.47l-1.31 1.62c-1.4-1.49-2.87-2.67-4.52-3.63l1.25-1.46zM177.39 1.83c-.2.33-.2.33-.58 1.11-.24.49-.36.73-.49.91.11 0 .36-.02.75-.04l4.33-.05c.62 0 .98-.05 1.38-.18l1.05 1.05c-.22.29-.25.4-.54 1.2-.62 1.67-1.58 3.74-2.38 5.02-1.84 2.93-4.33 5-8.18 6.78-.47-.8-.67-1.07-1.25-1.58 1.56-.62 2.49-1.11 3.63-1.87 1.33-.89 2.13-1.58 3.04-2.67-1.29-1.13-2.47-1.98-3.87-2.74l1.18-1.33c1.53.87 2.38 1.45 3.8 2.6.91-1.42 1.65-2.96 2.2-4.62l-5.91.05c-1.27 1.94-2.51 3.34-4.27 4.8-.51-.56-.73-.75-1.53-1.22 1.96-1.45 3.45-3.13 4.6-5.2.55-.98.91-1.84 1.05-2.49l1.99.47zM187.67 8.43c.67.09 1.45.13 2.8.13h9.83c1.56 0 2-.02 2.71-.11v2.11c-.8-.07-1.38-.09-2.73-.09h-9.8c-1.53 0-2.07.02-2.82.09V8.43zM209.06 13.08c0-.54-.02-.96-.07-1.45.58.04.93.05 1.58.05h9.41c.67 0 1.16-.02 1.71-.07-.05.45-.07.8-.07 1.45v2.82h.55c.67 0 1-.02 1.42-.07v1.64c-.58-.05-1.27-.09-1.98-.09h-12.45c-.69 0-1.47.04-1.94.09v-1.64c.44.05.78.07 1.34.07h.51v-2.8zm3.8-3.76h1.49c.69 0 1.13-.02 1.45-.05v1.45c-.36-.05-.82-.07-1.44-.07h-4.89c-.8 0-1.09.02-1.6.05.04-.44.05-.82.05-1.49V3.36c0-.64-.02-1.02-.05-1.42.49.04.8.05 1.54.05h4.63c.8 0 1.25-.02 1.73-.09v1.49c-.38-.05-.78-.07-1.38-.07h-1.54v1.22h1.16c.58 0 .89 0 1.11-.04-.02.29-.04.65-.04.96v1.58c0 .31.02.71.04.96-.2-.02-.58-.04-1.09-.04h-1.18v1.36zm-1.39-4.78V3.32h-2.05v1.22h2.05zm2.19 2.25V5.72h-4.23v1.07h4.23zm-4.24 1.18v1.34h2.05V7.97h-2.05zm1.2 7.91h2.16v-2.76h-2.16v2.76zm3.6 0h2.18v-2.76h-2.18v2.76zm3.74-10.69c-.47.85-.93 1.49-1.56 2.2-.4-.51-.62-.71-1.2-1.07 1.04-1.04 1.76-2.24 2.25-3.73.15-.47.27-1.02.33-1.38l1.71.31c-.05.15-.09.24-.35.95-.07.22-.29.78-.47 1.24h3.05c.69 0 1.2-.04 1.67-.11v1.69c-.44-.07-.95-.09-1.64-.09h-3.79zm-1.25 2.58c.36.05.75.07 1.33.07h3.18c.69 0 1.15-.02 1.62-.09v1.64c-.44-.05-.93-.09-1.6-.09h-2.89c-.62 0-1.15.04-1.64.09V7.77zm1.13 8.11h2.22v-2.76h-2.22v2.76zM228.83 10.33c0-.87.02-1.54.05-2.36-.49.98-.78 1.45-1.42 2.25-.25-.69-.53-1.25-.82-1.67 1.73-1.93 3.22-4.96 3.6-7.38l1.73.44c-.13.29-.13.31-.29.8a21.85 21.85 0 01-1.35 3.34v9.94c0 1.02.02 1.51.09 2.22h-1.71c.07-.69.11-1.25.11-2.2v-5.38zm14.77-6.05c-.54-.07-.94-.09-1.67-.09-.69 1.27-1.34 2.11-2.33 2.94 1.29.73 2.49 1.11 4.52 1.44-.31.51-.49.93-.65 1.54-2.45-.64-3.71-1.15-5.09-2.07-1.14.75-2.36 1.27-4.29 1.85-.2-.56-.4-.93-.69-1.31 1.65-.38 2.64-.76 3.85-1.44a9.11 9.11 0 01-1.67-2c-.55.69-.8.98-1.44 1.56-.38-.44-.64-.64-1.13-.93v7.51c0 .96.02 1.42.09 1.85h-1.67c.09-.49.11-.96.11-1.87V5.99c0-.85-.02-1.15-.07-1.65h1.62c-.05.42-.07.76-.07 1.36 1.58-1.33 2.54-2.74 3.13-4.62l1.62.35c-.31.69-.44.93-.64 1.34h4.51c.96 0 1.47-.04 1.96-.11v1.62zm.07 8.78c-.29.22-.38.29-.73.6-1.15 1-2.4 1.84-3.78 2.49-1.44.71-2.96 1.2-5.27 1.71-.25-.56-.42-.84-.8-1.38 2.85-.47 5.03-1.22 6.91-2.38 1.15-.71 1.87-1.31 2.36-1.96l1.31.92zm-3.99-3.12c-.18.11-.18.11-.64.44-1.05.76-2.62 1.42-4.71 2-.24-.51-.35-.67-.8-1.24 2.33-.47 4.02-1.18 4.96-2.09l1.19.89zm1.9 1.45c-2.49 1.98-4.02 2.74-7.12 3.53-.24-.58-.45-.93-.76-1.29 2.85-.55 5.6-1.85 6.58-3.11l1.3.87zm-5.03-7.2c.51.87 1.07 1.51 1.89 2.16.84-.65 1.36-1.29 1.84-2.16h-3.73z" />
	<g>
		<path
			d="M105.35 42.24c0-.38 0-.66.09-2.19-.56 1.16-1.31 2.22-2.85 4.01-1.66 1.97-4.16 4.26-6.67 6.04-1.28.94-2.38 1.63-4.85 3.04-.66-1.25-1.03-1.72-2.19-2.69 3.76-1.69 6.98-3.94 10.17-7.07 1.53-1.53 3.41-3.82 4.32-5.35l-8.98.03c-1.85 0-2.63.03-3.97.16v-3.25c1.19.19 1.78.22 4.07.22l10.77-.03-.03-2.44c-.03-1.82-.03-2-.16-3.04h3.47c-.09.75-.12 1.35-.12 2.1v.88l.03 2.5h3.29c1.91 0 2.72-.06 3.76-.22v3.22c-.81-.09-2.13-.12-3.72-.12h-3.29l.19 14.24c.03 2.28.06 2.97.19 3.97h-3.57c.13-1 .16-1.44.16-3.29v-.63l-.09-9.73v-.36zM141.56 32.38c-.03-.16-.03-.34-.03-.5 0-2 1.6-3.63 3.6-3.63s3.63 1.63 3.63 3.63-1.63 3.63-3.63 3.63c-.34 0-.69-.06-1-.16-.06.16-.12.38-.19.66-1.56 5.95-4.01 10.2-7.79 13.74-2.82 2.63-5.57 4.32-9.95 6.13-.69-1.41-1.06-1.88-2.25-3.07 2.79-.88 4.6-1.72 6.95-3.25 4.94-3.25 8.01-7.76 9.64-14.15H125.6c-2.1 0-2.94.06-4.16.22v-3.51c1.25.19 2.13.25 4.23.25h15.89zm1.47-.5c0 1.16.94 2.13 2.1 2.13 1.16 0 2.13-.97 2.13-2.13s-.94-2.13-2.13-2.13c-1.16 0-2.1.97-2.1 2.13zM175.02 32.38c-.41.09-.41.12-1.16.38-2.66.91-3.91 1.22-6.7 1.78-.03 3.29-.06 5.16-.06 5.63h6.45c2.44 0 3.04-.03 4.13-.22v3.25c-1.1-.12-1.88-.16-4.1-.16h-6.7c-.28 2.79-.94 4.94-2.07 6.82-1.1 1.82-2.91 3.57-5.07 4.98-.88.56-1.47.88-2.85 1.53-.78-1.31-1.19-1.82-2.32-2.75 2.25-.85 3.47-1.5 4.91-2.69 2.5-2.1 3.72-4.44 4.07-7.89h-7.48c-2.6 0-3.04 0-4.26.16v-3.25c1.1.19 1.88.22 4.29.22h7.7c.06-1.1.09-2.85.09-5.13-2.69.41-4.32.56-8.92.78-.22-1.19-.38-1.6-1-2.91.94.03 1.41.06 1.91.06 4.1 0 9.45-.75 13.3-1.88 1.78-.53 2.63-.88 3.69-1.5l2.15 2.79zM187.54 37.67c-.22-1.28-.31-1.6-.66-2.63l3.16-.47c.06 1.03.09 1.16.38 2.69l.41 2.22 9.23-1.53c1.31-.22 1.78-.31 2.38-.56l1.81 1.63c-.28.44-.41.66-.75 1.47-1.38 3.38-3.19 5.66-6.1 7.79-.94-.97-1.31-1.25-2.44-1.85 2.38-1.44 3.82-2.91 5.2-5.29l.34-.63c-.25.09-.63.16-1.03.22l-8.14 1.38 2.03 10.73c.47 2.35.47 2.35.81 3.41l-3.35.59c-.03-1.13-.09-1.53-.44-3.5l-1.97-10.77-2.47.41c-1.28.22-2.13.41-3.13.72l-.56-3c1.13-.03 1.91-.12 3.13-.31l2.57-.44-.41-2.28zM221.99 36.82c-1.03.81-1.75 1.38-3.07 2.19-.44-.88-.88-1.53-1.35-2-.44-.03-.66-.03-.97-.03h-.94c.75 2 1.66 3.57 3.47 5.79-.63.75-.97 1.31-1.41 2.32-1.19-1.91-1.53-2.63-2.35-4.73.06 1.03.13 2.82.13 4.51v8.7c0 1.66.06 2.82.19 3.76h-3.07c.16-.94.22-2.16.22-3.76v-7.45c0-1.22.06-2.79.19-4.48-1.22 4.22-1.66 5.38-3.25 8.26-.59-1.38-.88-1.91-1.56-2.72 1.78-2.5 3.6-6.73 4.32-10.2h-1.44c-.91 0-1.56.03-2.13.12v-2.85c.56.09 1.13.12 2.13.12h1.72v-2.69c0-1.69-.03-2.47-.16-3.25h3c-.12.81-.16 1.69-.16 3.22v2.72h1.06c.81 0 1.25-.03 1.78-.12v1.94c3.29-1.97 5.45-4.19 7.23-7.42h2.94c.94 1.6 1.88 2.63 3.6 4.1 1.88 1.56 3.41 2.5 5.85 3.57-.59.81-.94 1.44-1.44 2.6-1.53-.81-2.5-1.41-3.76-2.28v1.75c-.84-.06-1.41-.09-2.63-.09h-1.66V40.64h4.16c1.28 0 2-.03 2.79-.09-.06.88-.09 1.56-.09 2.35v3.54c0 1.13.03 1.63.09 2.38-.91-.09-1.63-.12-2.97-.12h-3.44c1.82 2.85 4.73 4.76 8.67 5.73-.59.88-1 1.6-1.47 2.79-4.35-1.63-7.32-4.04-9.11-7.32-1.44 3.47-4.04 5.66-8.57 7.29-.5-1.16-.91-1.81-1.69-2.63 4.32-1.03 6.63-2.72 7.92-5.85h-2.69c-1.22 0-1.94.03-2.85.12.06-.66.09-1.22.09-1.97V42.7c0-.94-.03-1.44-.09-2.13.84.09 1.16.09 2.72.09h3.91v-2.22h-1.22c-1.25 0-1.75.03-2.66.09v-1.71zm-.06 6.07v3.54h3.54c.22-1.16.28-1.75.34-3.54h-3.88zm8.23-6.88c.75 0 1.1 0 1.6-.03-2.03-1.6-2.97-2.6-4.66-4.94-1.31 2.13-2.25 3.25-4.1 4.94.59.03.94.03 1.66.03h5.5zm-1.72 6.88c-.06 1.53-.16 2.28-.34 3.54h4.66v-3.54h-4.32zM253.76 40.17h-4.98c-1.41 0-2.22.03-3.16.16v-2.85c.81.09 1.75.16 3.16.16h12.36c1.41 0 2.35-.06 3.16-.16v2.85c-.81-.09-1.72-.16-3.16-.16h-4.66v4.44h5.98c1.38 0 2.22-.06 3.04-.19v2.85c-.94-.13-1.72-.16-3.04-.16h-5.98v6.01c1.31.19 3.16.31 5.07.31 2.16 0 4.32-.09 7.26-.34-.47 1.06-.66 1.75-.81 3-2.28.06-3.69.09-5.88.09-4.79 0-8.2-.59-10.52-1.85-1.78-.94-3.1-2.19-4.1-3.85-1.25 2.66-2.35 4.26-4.48 6.54-.72-.97-1.06-1.28-2.25-2.13 2.16-2.07 3.25-3.54 4.32-5.88.97-2.1 1.72-5.04 1.72-6.67l2.97.56c-.13.5-.13.5-.41 1.78-.12.47-.47 1.81-.84 2.97.78 1.44 1.13 1.94 2 2.75.94.88 1.85 1.44 3.22 1.97v-12.2zm-.5-9.58c0-.75-.03-1.22-.19-1.97h3.29c-.12.69-.19 1.19-.19 1.97v1.31h8.67c1.22 0 2.22-.03 3.35-.13-.09.69-.13 1.38-.13 2.22v2.25c0 .94.03 1.66.13 2.38h-2.85v-4.13H244.5v4.13h-2.88c.09-.78.13-1.35.13-2.38V34c0-.78-.03-1.6-.13-2.22 1.16.09 2.13.13 3.32.13h8.32v-1.32z" />
	</g>
</svg>