<?xml version="1.0" encoding="UTF-8" standalone="no"?>
<svg
   class="B2mpXe"
   height="1206"
   viewBox="0 0 1206 1206"
   fill="none"
   width="1206"
   version="1.1"
   id="svg655"
   sodipodi:docname="labs2.svg"
   inkscape:version="1.1.1 (3bf5ae0d25, 2021-09-20)"
   xmlns:inkscape="http://www.inkscape.org/namespaces/inkscape"
   xmlns:sodipodi="http://sodipodi.sourceforge.net/DTD/sodipodi-0.dtd"
   xmlns="http://www.w3.org/2000/svg"
   xmlns:svg="http://www.w3.org/2000/svg">
  <sodipodi:namedview
     id="namedview657"
     pagecolor="#ffffff"
     bordercolor="#666666"
     borderopacity="1.0"
     inkscape:pageshadow="2"
     inkscape:pageopacity="0.0"
     inkscape:pagecheckerboard="0"
     showgrid="false"
     inkscape:zoom="0.68988391"
     inkscape:cx="602.27524"
     inkscape:cy="603.72476"
     inkscape:window-width="1920"
     inkscape:window-height="1017"
     inkscape:window-x="-8"
     inkscape:window-y="-8"
     inkscape:window-maximized="1"
     inkscape:current-layer="svg655" />
  <mask
     id="mask0-8252-308465"
     style="mask-type:alpha"
     maskUnits="userSpaceOnUse"
     x="285"
     y="346"
     width="627"
     height="638"
     fill="none">
    <path
       d="M901.663 877.104L704.624 535.735V416.875H739.999C759.455 416.875 775.374 400.956 775.374 381.5C775.374 362.044 759.455 346.125 739.999 346.125H704.624H492.374H456.999C437.543 346.125 421.624 362.044 421.624 381.5C421.624 400.956 437.543 416.875 456.999 416.875H492.374V535.735L295.335 877.104C268.096 924.153 302.056 983.229 356.534 983.229H840.464C894.941 983.229 928.901 924.153 901.663 877.104Z"
       fill="#A2DCFF"
       id="path345" />
  </mask>
  <g
     mask="url(#mask0-8252-308465)"
     fill="none"
     id="g402">
    <rect
       x="251.734"
       y="331.867"
       width="692.533"
       height="664.267"
       fill="#A2DCFF"
       id="rect348" />
    <g
       filter="url(#filter0-f-8252-308465)"
       fill="none"
       id="g352">
      <path
         d="M634.463 433.366C656.928 441.981 675.33 427.84 668.412 407.276L665.39 398.291C660.268 383.068 643.105 371.193 627.054 371.768V371.768C611.004 372.342 602.143 385.149 607.264 400.371L610.287 409.357C613.779 419.737 623.123 429.017 634.463 433.366V433.366Z"
         fill="#FFAFD6"
         id="path350" />
    </g>
    <g
       filter="url(#filter1-f-8252-308465)"
       fill="none"
       id="g356">
      <path
         d="M439.962 360.126C434.754 360.126 430.678 355.642 431.173 350.458V350.458C431.606 345.924 435.417 342.463 439.972 342.468L610.479 342.658C615.299 342.663 619.203 346.572 619.203 351.392V351.392C619.203 356.216 615.293 360.126 610.469 360.126L439.962 360.126Z"
         fill="url(&quot;#paint0-linear-8252-308465&quot;)"
         fill-opacity="0.74"
         id="path354" />
    </g>
    <g
       filter="url(#filter2-f-8252-308465)"
       fill="none"
       id="g360">
      <path
         d="M452.26 356.593C447.052 356.593 442.976 352.109 443.471 346.925V346.925C443.904 342.391 447.715 338.93 452.269 338.935L622.777 339.125C627.597 339.13 631.501 343.039 631.501 347.859V347.859C631.501 352.683 627.591 356.593 622.767 356.593L452.26 356.593Z"
         fill="url(&quot;#paint1-linear-8252-308465&quot;)"
         fill-opacity="0.74"
         id="path358" />
    </g>
    <g
       filter="url(#filter3-f-8252-308465)"
       fill="none"
       id="g364">
      <path
         d="M434.593 356.593C429.385 356.593 425.309 352.109 425.804 346.925V346.925C426.237 342.391 430.048 338.93 434.603 338.935L605.11 339.125C609.93 339.13 613.835 343.039 613.835 347.859V347.859C613.835 352.683 609.924 356.593 605.1 356.593L434.593 356.593Z"
         fill="url(&quot;#paint2-linear-8252-308465&quot;)"
         fill-opacity="0.74"
         id="path362" />
    </g>
    <g
       filter="url(#filter4-f-8252-308465)"
       fill="none"
       id="g368">
      <path
         d="M764.036 401.284C777.864 407.537 790.02 399.097 785.696 386.245L781.502 373.777C778.439 364.672 768.173 357.57 758.573 357.913V357.913C748.973 358.257 743.673 365.917 746.736 375.022L750.931 387.49C752.869 393.251 757.837 398.481 764.036 401.284V401.284Z"
         fill="#FFFFFF"
         id="path366" />
    </g>
    <g
       filter="url(#filter5-f-8252-308465)"
       fill="none"
       id="g372">
      <path
         d="M775.772 397.985C780.356 396.336 780.82 390.385 776.354 390.505L740.792 391.461C738.571 391.521 736.304 393.309 735.729 395.456V395.456C735.154 397.602 736.488 399.293 738.709 399.234L774.271 398.278C774.761 398.265 775.269 398.165 775.772 397.985V397.985Z"
         fill="#FFFFFF"
         id="path370" />
    </g>
    <g
       filter="url(#filter6-f-8252-308465)"
       fill="none"
       id="g376">
      <path
         d="M580.605 384.512C599.548 394.17 617.225 382.886 611.202 364.98L602.765 339.902C598.644 327.653 584.834 318.098 571.918 318.56V318.56C559.003 319.022 551.873 329.327 555.994 341.577L564.43 366.654C566.875 373.921 572.918 380.593 580.605 384.512V384.512Z"
         fill="#34A554"
         fill-opacity="0.19"
         id="path374" />
    </g>
    <g
       filter="url(#filter7-f-8252-308465)"
       fill="none"
       id="g380">
      <path
         d="M597.344 468.738C615.079 478.371 632.21 467.948 626.507 450.994L617.129 423.119C613.302 411.743 600.477 402.87 588.483 403.299V403.299C576.489 403.729 569.868 413.298 573.695 424.674L583.072 452.549C585.258 459.046 590.548 465.046 597.344 468.738V468.738Z"
         fill="#F5ECB7"
         fill-opacity="0.3"
         id="path378" />
    </g>
    <g
       filter="url(#filter8-f-8252-308465)"
       fill="none"
       id="g384">
      <path
         d="M608.275 496.404C623.213 502.618 635.864 493.354 631.234 479.591L628.029 470.065C624.673 460.089 613.425 452.307 602.906 452.683V452.683C592.388 453.06 586.581 461.452 589.937 471.429L593.142 480.954C595.351 487.523 601.146 493.439 608.275 496.404V496.404Z"
         fill="#FFFFFF"
         fill-opacity="0.93"
         id="path382" />
    </g>
    <g
       filter="url(#filter9-f-8252-308465)"
       fill="none"
       id="g388">
      <path
         d="M690.176 423.571C686.447 423.625 683.157 421.141 682.188 417.541V417.541C680.747 412.188 684.955 406.99 690.49 407.285L770.202 411.53C773.06 411.682 775.311 414.022 775.353 416.884V416.884C775.397 419.889 772.997 422.36 769.992 422.404L690.176 423.571Z"
         fill="url(&quot;#paint3-linear-8252-308465&quot;)"
         fill-opacity="0.74"
         id="path386" />
    </g>
    <g
       filter="url(#filter10-f-8252-308465)"
       fill="none"
       id="g392">
      <path
         d="M747.07 424.346C750.836 424.401 754.147 421.862 755.071 418.21V418.21C756.417 412.884 752.203 407.784 746.719 408.101L673.003 412.37C670.149 412.535 667.907 414.876 667.865 417.735V417.735C667.821 420.746 670.227 423.223 673.238 423.267L747.07 424.346Z"
         fill="url(&quot;#paint4-linear-8252-308465&quot;)"
         fill-opacity="0.74"
         id="path390" />
    </g>
    <g
       filter="url(#filter11-f-8252-308465)"
       fill="none"
       id="g396">
      <path
         d="M718.456 417.27C714.728 417.324 711.438 414.841 710.468 411.24V411.24C709.028 405.887 713.235 400.689 718.771 400.984L798.482 405.229C801.34 405.381 803.592 407.721 803.634 410.583V410.583C803.678 413.588 801.277 416.059 798.273 416.103L718.456 417.27Z"
         fill="url(&quot;#paint5-linear-8252-308465&quot;)"
         fill-opacity="0.74"
         id="path394" />
    </g>
    <g
       filter="url(#filter12-f-8252-308465)"
       fill="none"
       id="g400">
      <path
         d="M539.744 421.416C542.72 421.459 545.375 419.556 546.29 416.724V416.724C547.739 412.237 544.274 407.679 539.563 407.874L457.505 411.278C455.135 411.376 453.255 413.308 453.22 415.68V415.68C453.184 418.149 455.156 420.18 457.625 420.216L539.744 421.416Z"
         fill="url(&quot;#paint6-linear-8252-308465&quot;)"
         fill-opacity="0.85"
         id="path398" />
    </g>
  </g>
  <mask
     id="mask1-8252-308465"
     style="mask-type:alpha"
     maskUnits="userSpaceOnUse"
     x="284"
     y="699"
     width="628"
     height="284"
     fill="none">
    <path
       d="M901.662 877.104L821.361 737.726C809.334 715.086 785.632 699.875 758.394 699.875C719.481 699.875 600.267 769.917 598.499 770.625H598.145L376.697 735.25L294.627 877.104C268.45 922.03 298.519 977.922 348.751 982.875H847.185C897.771 977.922 927.84 922.03 901.662 877.104Z"
       fill="#168EE4"
       id="path404" />
  </mask>
  <g
     mask="url(#mask1-8252-308465)"
     fill="none"
     id="g425">
    <rect
       x="272.934"
       y="681.667"
       width="639.533"
       height="321.533"
       fill="#118BE3"
       id="rect407" />
    <g
       filter="url(#filter13-f-8252-308465)"
       fill="none"
       id="g411">
      <rect
         width="110.585"
         height="99.9708"
         rx="45.9333"
         transform="matrix(0.928524 -0.371272 0.443828 0.896112 607.137 733.764)"
         fill="#FFAFD6"
         id="rect409" />
    </g>
    <g
       filter="url(#filter14-f-8252-308465)"
       fill="none"
       id="g415">
      <rect
         width="110.585"
         height="99.9708"
         rx="45.9333"
         transform="matrix(0.928524 -0.371272 0.443828 0.896112 593.139 719.705)"
         fill="#FFAFD6"
         id="rect413" />
    </g>
    <g
       filter="url(#filter15-f-8252-308465)"
       fill="none"
       id="g419">
      <path
         d="M494.6 828.163C481.648 802.011 496.92 772.517 526.109 767.314L560.292 761.221C570.195 759.456 578.717 753.974 583.947 746.005V746.005C600.526 720.743 641.94 726.858 652.476 756.124L662.752 784.67C670.592 806.445 660.136 829.438 638.452 838.108L565.141 867.422C541.586 876.84 513.363 866.047 502.104 843.314L494.6 828.163Z"
         fill="#C9F8C4"
         fill-opacity="0.75"
         id="path417" />
    </g>
    <g
       filter="url(#filter16-f-8252-308465)"
       fill="none"
       id="g423">
      <path
         d="M797.353 849.208C793.471 834.3 776.021 827.909 763.032 836.639V836.639C750.437 845.103 733.501 839.38 729.02 825.146L722.255 803.656C714.325 778.468 684.246 768.482 662.113 783.69L550.254 860.547C534.496 871.374 513.187 867.221 503.191 851.375V851.375C489.971 830.419 459.138 831.354 446.804 853.396C414.192 911.675 366.222 1003.39 382.857 1010.84C385.504 1012.02 388.709 1011.16 391.633 1011.19L779.406 1015.21C810.05 1015.53 833.046 986.312 825.367 956.816L797.353 849.208Z"
         fill="#D5FCFD"
         fill-opacity="0.5"
         id="path421" />
    </g>
  </g>
  <path
     d="M598.857 770.625C598.857 770.625 478.228 699.875 438.962 699.875C399.695 699.875 366.794 731.712 366.794 770.625C366.794 809.537 399.695 841.375 438.962 841.375C478.228 841.375 598.857 770.625 598.857 770.625Z"
     fill="#0B76CB"
     id="path427" />
  <defs
     id="defs653">
    <filter
       id="filter0-f-8252-308465"
       x="475.079"
       y="241.014"
       width="325.543"
       height="325.655"
       filterUnits="userSpaceOnUse"
       color-interpolation-filters="sRGB">
      <feFlood
         flood-opacity="0"
         result="BackgroundImageFix"
         id="feFlood429" />
      <feBlend
         mode="normal"
         in="SourceGraphic"
         in2="BackgroundImageFix"
         result="shape"
         id="feBlend431" />
      <feGaussianBlur
         stdDeviation="65.3667"
         result="effect1-foregroundBlur-8252-308465"
         id="feGaussianBlur433" />
    </filter>
    <filter
       id="filter1-f-8252-308465"
       x="392.266"
       y="303.602"
       width="265.804"
       height="95.3911"
       filterUnits="userSpaceOnUse"
       color-interpolation-filters="sRGB">
      <feFlood
         flood-opacity="0"
         result="BackgroundImageFix"
         id="feFlood436" />
      <feBlend
         mode="normal"
         in="SourceGraphic"
         in2="BackgroundImageFix"
         result="shape"
         id="feBlend438" />
      <feGaussianBlur
         stdDeviation="19.4333"
         result="effect1-foregroundBlur-8252-308465"
         id="feGaussianBlur440" />
    </filter>
    <filter
       id="filter2-f-8252-308465"
       x="404.564"
       y="300.069"
       width="265.804"
       height="95.3911"
       filterUnits="userSpaceOnUse"
       color-interpolation-filters="sRGB">
      <feFlood
         flood-opacity="0"
         result="BackgroundImageFix"
         id="feFlood443" />
      <feBlend
         mode="normal"
         in="SourceGraphic"
         in2="BackgroundImageFix"
         result="shape"
         id="feBlend445" />
      <feGaussianBlur
         stdDeviation="19.4333"
         result="effect1-foregroundBlur-8252-308465"
         id="feGaussianBlur447" />
    </filter>
    <filter
       id="filter3-f-8252-308465"
       x="386.897"
       y="300.069"
       width="265.804"
       height="95.3911"
       filterUnits="userSpaceOnUse"
       color-interpolation-filters="sRGB">
      <feFlood
         flood-opacity="0"
         result="BackgroundImageFix"
         id="feFlood450" />
      <feBlend
         mode="normal"
         in="SourceGraphic"
         in2="BackgroundImageFix"
         result="shape"
         id="feBlend452" />
      <feGaussianBlur
         stdDeviation="19.4333"
         result="effect1-foregroundBlur-8252-308465"
         id="feGaussianBlur454" />
    </filter>
    <filter
       id="filter4-f-8252-308465"
       x="678.735"
       y="290.768"
       width="174.982"
       height="179.757"
       filterUnits="userSpaceOnUse"
       color-interpolation-filters="sRGB">
      <feFlood
         flood-opacity="0"
         result="BackgroundImageFix"
         id="feFlood457" />
      <feBlend
         mode="normal"
         in="SourceGraphic"
         in2="BackgroundImageFix"
         result="shape"
         id="feBlend459" />
      <feGaussianBlur
         stdDeviation="33.5667"
         result="effect1-foregroundBlur-8252-308465"
         id="feGaussianBlur461" />
    </filter>
    <filter
       id="filter5-f-8252-308465"
       x="675.529"
       y="330.437"
       width="164.006"
       height="128.865"
       filterUnits="userSpaceOnUse"
       color-interpolation-filters="sRGB">
      <feFlood
         flood-opacity="0"
         result="BackgroundImageFix"
         id="feFlood464" />
      <feBlend
         mode="normal"
         in="SourceGraphic"
         in2="BackgroundImageFix"
         result="shape"
         id="feBlend466" />
      <feGaussianBlur
         stdDeviation="30.0333"
         result="effect1-foregroundBlur-8252-308465"
         id="feGaussianBlur468" />
    </filter>
    <filter
       id="filter6-f-8252-308465"
       x="487.692"
       y="251.411"
       width="191.841"
       height="203.776"
       filterUnits="userSpaceOnUse"
       color-interpolation-filters="sRGB">
      <feFlood
         flood-opacity="0"
         result="BackgroundImageFix"
         id="feFlood471" />
      <feBlend
         mode="normal"
         in="SourceGraphic"
         in2="BackgroundImageFix"
         result="shape"
         id="feBlend473" />
      <feGaussianBlur
         stdDeviation="33.5667"
         result="effect1-foregroundBlur-8252-308465"
         id="feGaussianBlur475" />
    </filter>
    <filter
       id="filter7-f-8252-308465"
       x="505.477"
       y="336.151"
       width="189.279"
       height="203.405"
       filterUnits="userSpaceOnUse"
       color-interpolation-filters="sRGB">
      <feFlood
         flood-opacity="0"
         result="BackgroundImageFix"
         id="feFlood478" />
      <feBlend
         mode="normal"
         in="SourceGraphic"
         in2="BackgroundImageFix"
         result="shape"
         id="feBlend480" />
      <feGaussianBlur
         stdDeviation="33.5667"
         result="effect1-foregroundBlur-8252-308465"
         id="feGaussianBlur482" />
    </filter>
    <filter
       id="filter8-f-8252-308465"
       x="507.719"
       y="371.404"
       width="205.751"
       height="208.238"
       filterUnits="userSpaceOnUse"
       color-interpolation-filters="sRGB">
      <feFlood
         flood-opacity="0"
         result="BackgroundImageFix"
         id="feFlood485" />
      <feBlend
         mode="normal"
         in="SourceGraphic"
         in2="BackgroundImageFix"
         result="shape"
         id="feBlend487" />
      <feGaussianBlur
         stdDeviation="40.6333"
         result="effect1-foregroundBlur-8252-308465"
         id="feGaussianBlur489" />
    </filter>
    <filter
       id="filter9-f-8252-308465"
       x="657.169"
       y="382.54"
       width="142.918"
       height="65.765"
       filterUnits="userSpaceOnUse"
       color-interpolation-filters="sRGB">
      <feFlood
         flood-opacity="0"
         result="BackgroundImageFix"
         id="feFlood492" />
      <feBlend
         mode="normal"
         in="SourceGraphic"
         in2="BackgroundImageFix"
         result="shape"
         id="feBlend494" />
      <feGaussianBlur
         stdDeviation="12.3667"
         result="effect1-foregroundBlur-8252-308465"
         id="feGaussianBlur496" />
    </filter>
    <filter
       id="filter10-f-8252-308465"
       x="639.598"
       y="379.82"
       width="143.992"
       height="72.7936"
       filterUnits="userSpaceOnUse"
       color-interpolation-filters="sRGB">
      <feFlood
         flood-opacity="0"
         result="BackgroundImageFix"
         id="feFlood499" />
      <feBlend
         mode="normal"
         in="SourceGraphic"
         in2="BackgroundImageFix"
         result="shape"
         id="feBlend501" />
      <feGaussianBlur
         stdDeviation="14.1333"
         result="effect1-foregroundBlur-8252-308465"
         id="feGaussianBlur503" />
    </filter>
    <filter
       id="filter11-f-8252-308465"
       x="685.45"
       y="376.239"
       width="142.918"
       height="65.765"
       filterUnits="userSpaceOnUse"
       color-interpolation-filters="sRGB">
      <feFlood
         flood-opacity="0"
         result="BackgroundImageFix"
         id="feFlood506" />
      <feBlend
         mode="normal"
         in="SourceGraphic"
         in2="BackgroundImageFix"
         result="shape"
         id="feBlend508" />
      <feGaussianBlur
         stdDeviation="12.3667"
         result="effect1-foregroundBlur-8252-308465"
         id="feGaussianBlur510" />
    </filter>
    <filter
       id="filter12-f-8252-308465"
       x="428.486"
       y="383.135"
       width="142.87"
       height="63.0152"
       filterUnits="userSpaceOnUse"
       color-interpolation-filters="sRGB">
      <feFlood
         flood-opacity="0"
         result="BackgroundImageFix"
         id="feFlood513" />
      <feBlend
         mode="normal"
         in="SourceGraphic"
         in2="BackgroundImageFix"
         result="shape"
         id="feBlend515" />
      <feGaussianBlur
         stdDeviation="12.3667"
         result="effect1-foregroundBlur-8252-308465"
         id="feGaussianBlur517" />
    </filter>
    <filter
       id="filter13-f-8252-308465"
       x="449.757"
       y="533.223"
       width="461.81"
       height="449.611"
       filterUnits="userSpaceOnUse"
       color-interpolation-filters="sRGB">
      <feFlood
         flood-opacity="0"
         result="BackgroundImageFix"
         id="feFlood520" />
      <feBlend
         mode="normal"
         in="SourceGraphic"
         in2="BackgroundImageFix"
         result="shape"
         id="feBlend522" />
      <feGaussianBlur
         stdDeviation="86.5667"
         result="effect1-foregroundBlur-8252-308465"
         id="feGaussianBlur524" />
    </filter>
    <filter
       id="filter14-f-8252-308465"
       x="435.759"
       y="519.163"
       width="461.81"
       height="449.611"
       filterUnits="userSpaceOnUse"
       color-interpolation-filters="sRGB">
      <feFlood
         flood-opacity="0"
         result="BackgroundImageFix"
         id="feFlood527" />
      <feBlend
         mode="normal"
         in="SourceGraphic"
         in2="BackgroundImageFix"
         result="shape"
         id="feBlend529" />
      <feGaussianBlur
         stdDeviation="86.5667"
         result="effect1-foregroundBlur-8252-308465"
         id="feGaussianBlur531" />
    </filter>
    <filter
       id="filter15-f-8252-308465"
       x="338.019"
       y="578.234"
       width="479.26"
       height="444.526"
       filterUnits="userSpaceOnUse"
       color-interpolation-filters="sRGB">
      <feFlood
         flood-opacity="0"
         result="BackgroundImageFix"
         id="feFlood534" />
      <feBlend
         mode="normal"
         in="SourceGraphic"
         in2="BackgroundImageFix"
         result="shape"
         id="feBlend536" />
      <feGaussianBlur
         stdDeviation="75.9667"
         result="effect1-foregroundBlur-8252-308465"
         id="feGaussianBlur538" />
    </filter>
    <filter
       id="filter16-f-8252-308465"
       x="199.249"
       y="596.302"
       width="807.808"
       height="599.112"
       filterUnits="userSpaceOnUse"
       color-interpolation-filters="sRGB">
      <feFlood
         flood-opacity="0"
         result="BackgroundImageFix"
         id="feFlood541" />
      <feBlend
         mode="normal"
         in="SourceGraphic"
         in2="BackgroundImageFix"
         result="shape"
         id="feBlend543" />
      <feGaussianBlur
         stdDeviation="90.1"
         result="effect1-foregroundBlur-8252-308465"
         id="feGaussianBlur545" />
    </filter>
    <linearGradient
       id="paint0-linear-8252-308465"
       x1="522.546"
       y1="365.108"
       x2="522.885"
       y2="345.652"
       gradientUnits="userSpaceOnUse">
      <stop
         stop-color="white"
         stop-opacity="0"
         id="stop548" />
      <stop
         offset="0.596645"
         stop-color="white"
         id="stop550" />
      <stop
         offset="1"
         stop-color="white"
         stop-opacity="0"
         id="stop552" />
    </linearGradient>
    <linearGradient
       id="paint1-linear-8252-308465"
       x1="534.844"
       y1="361.574"
       x2="535.183"
       y2="342.119"
       gradientUnits="userSpaceOnUse">
      <stop
         stop-color="white"
         stop-opacity="0"
         id="stop555" />
      <stop
         offset="0.596645"
         stop-color="white"
         id="stop557" />
      <stop
         offset="1"
         stop-color="white"
         stop-opacity="0"
         id="stop559" />
    </linearGradient>
    <linearGradient
       id="paint2-linear-8252-308465"
       x1="517.177"
       y1="361.574"
       x2="517.517"
       y2="342.119"
       gradientUnits="userSpaceOnUse">
      <stop
         stop-color="white"
         stop-opacity="0"
         id="stop562" />
      <stop
         offset="0.596645"
         stop-color="white"
         id="stop564" />
      <stop
         offset="1"
         stop-color="white"
         stop-opacity="0"
         id="stop566" />
    </linearGradient>
    <linearGradient
       id="paint3-linear-8252-308465"
       x1="728.621"
       y1="426.012"
       x2="728.704"
       y2="414.283"
       gradientUnits="userSpaceOnUse">
      <stop
         stop-color="white"
         stop-opacity="0"
         id="stop569" />
      <stop
         offset="0.596645"
         stop-color="white"
         id="stop571" />
      <stop
         offset="1"
         stop-color="white"
         stop-opacity="0"
         id="stop573" />
    </linearGradient>
    <linearGradient
       id="paint4-linear-8252-308465"
       x1="711.586"
       y1="426.831"
       x2="711.485"
       y2="415.102"
       gradientUnits="userSpaceOnUse">
      <stop
         stop-color="white"
         stop-opacity="0"
         id="stop576" />
      <stop
         offset="0.596645"
         stop-color="white"
         id="stop578" />
      <stop
         offset="1"
         stop-color="white"
         stop-opacity="0"
         id="stop580" />
    </linearGradient>
    <linearGradient
       id="paint5-linear-8252-308465"
       x1="756.902"
       y1="419.711"
       x2="756.985"
       y2="407.982"
       gradientUnits="userSpaceOnUse">
      <stop
         stop-color="white"
         stop-opacity="0"
         id="stop583" />
      <stop
         offset="0.596645"
         stop-color="white"
         id="stop585" />
      <stop
         offset="1"
         stop-color="white"
         stop-opacity="0"
         id="stop587" />
    </linearGradient>
    <linearGradient
       id="paint6-linear-8252-308465"
       x1="499.974"
       y1="423.317"
       x2="499.942"
       y2="413.623"
       gradientUnits="userSpaceOnUse">
      <stop
         stop-color="white"
         stop-opacity="0"
         id="stop590" />
      <stop
         offset="0.596645"
         stop-color="white"
         id="stop592" />
      <stop
         offset="1"
         stop-color="white"
         stop-opacity="0"
         id="stop594" />
    </linearGradient>
    <linearGradient
       id="linearGradient603"
       x1="522.546"
       y1="365.108"
       x2="522.885"
       y2="345.652"
       gradientUnits="userSpaceOnUse">
      <stop
         stop-color="white"
         stop-opacity="0"
         id="stop597" />
      <stop
         offset="0.596645"
         stop-color="white"
         id="stop599" />
      <stop
         offset="1"
         stop-color="white"
         stop-opacity="0"
         id="stop601" />
    </linearGradient>
    <linearGradient
       id="linearGradient611"
       x1="534.844"
       y1="361.574"
       x2="535.183"
       y2="342.119"
       gradientUnits="userSpaceOnUse">
      <stop
         stop-color="white"
         stop-opacity="0"
         id="stop605" />
      <stop
         offset="0.596645"
         stop-color="white"
         id="stop607" />
      <stop
         offset="1"
         stop-color="white"
         stop-opacity="0"
         id="stop609" />
    </linearGradient>
    <linearGradient
       id="linearGradient619"
       x1="517.177"
       y1="361.574"
       x2="517.517"
       y2="342.119"
       gradientUnits="userSpaceOnUse">
      <stop
         stop-color="white"
         stop-opacity="0"
         id="stop613" />
      <stop
         offset="0.596645"
         stop-color="white"
         id="stop615" />
      <stop
         offset="1"
         stop-color="white"
         stop-opacity="0"
         id="stop617" />
    </linearGradient>
    <linearGradient
       id="linearGradient627"
       x1="728.621"
       y1="426.012"
       x2="728.704"
       y2="414.283"
       gradientUnits="userSpaceOnUse">
      <stop
         stop-color="white"
         stop-opacity="0"
         id="stop621" />
      <stop
         offset="0.596645"
         stop-color="white"
         id="stop623" />
      <stop
         offset="1"
         stop-color="white"
         stop-opacity="0"
         id="stop625" />
    </linearGradient>
    <linearGradient
       id="linearGradient635"
       x1="711.586"
       y1="426.831"
       x2="711.485"
       y2="415.102"
       gradientUnits="userSpaceOnUse">
      <stop
         stop-color="white"
         stop-opacity="0"
         id="stop629" />
      <stop
         offset="0.596645"
         stop-color="white"
         id="stop631" />
      <stop
         offset="1"
         stop-color="white"
         stop-opacity="0"
         id="stop633" />
    </linearGradient>
    <linearGradient
       id="linearGradient643"
       x1="756.902"
       y1="419.711"
       x2="756.985"
       y2="407.982"
       gradientUnits="userSpaceOnUse">
      <stop
         stop-color="white"
         stop-opacity="0"
         id="stop637" />
      <stop
         offset="0.596645"
         stop-color="white"
         id="stop639" />
      <stop
         offset="1"
         stop-color="white"
         stop-opacity="0"
         id="stop641" />
    </linearGradient>
    <linearGradient
       id="linearGradient651"
       x1="499.974"
       y1="423.317"
       x2="499.942"
       y2="413.623"
       gradientUnits="userSpaceOnUse">
      <stop
         stop-color="white"
         stop-opacity="0"
         id="stop645" />
      <stop
         offset="0.596645"
         stop-color="white"
         id="stop647" />
      <stop
         offset="1"
         stop-color="white"
         stop-opacity="0"
         id="stop649" />
    </linearGradient>
  </defs>
</svg>
