<svg width="144" height="101" viewBox="0 0 144 101" xmlns="http://www.w3.org/2000/svg" xmlns:xlink="http://www.w3.org/1999/xlink">
    <svg width="25" height="19" fill="none" viewBox="-4 -4 25 19" x="72" y="48" xmlns="http://www.w3.org/2000/svg">
        <path fill-rule="evenodd" clip-rule="evenodd" d="M6.475 9.547C3.126 6.902.83 3.623 0 0c4.49 2.21 9.962 3.528 15.89 3.562 5.251-2.983-9.941 9.801-8.002 7.046-.493-.342-.957-.7-1.413-1.061z" fill="#F8F9FB"/>
    </svg>
    <svg width="25" height="19" fill="none" viewBox="-4 -4 25 19" x="86" y="72" xmlns="http://www.w3.org/2000/svg">
        <path d="M8.464 7.536L12 4M8.464 7.536L4.93 4" stroke="#B1B2B5" stroke-width="1.5" stroke-linecap="square"/>
    </svg>
    <svg width="29" height="29" viewBox="-4 -4 29 29" y="72" xmlns="http://www.w3.org/2000/svg">
        <g fill="none" fill-rule="evenodd">
            <path stroke="#FFF" stroke-width="1.6" d="M15.875 16.793h-9.75a.754.754 0 01-.75-.757v-7.36c0-.417.336-.756.75-.756h9.75c.414 0 .75.339.75.757v7.359a.754.754 0 01-.75.757zM13.776 7.92V6.432c0-1.567-1.258-2.837-2.81-2.837s-2.811 1.27-2.811 2.837V7.92"/>
            <g fill="#FFF" fill-rule="nonzero">
                <path d="M11 12.09a.513.513 0 01-.509-.514c0-.284.229-.514.509-.514s.509.23.509.514a.512.512 0 01-.509.514z"/>
                <path d="M11 11.441a.135.135 0 010 .27.134.134 0 01-.134-.135c0-.075.06-.135.134-.135zm0-.757c-.488 0-.884.4-.884.892s.396.892.884.892.884-.4.884-.892a.888.888 0 00-.884-.892z"/>
            </g>
            <path stroke="#FFF" d="M11 12.14v1.855"/>
        </g>
    </svg>
    <svg width="28" height="28" viewBox="-4 -4 28 28" x="58" y="72" xmlns="http://www.w3.org/2000/svg">
        <defs>
            <radialGradient id="a" cx="100%" cy="0%" r="146.783%" fx="100%" fy="0%" gradientTransform="matrix(-.68128 .68128 -.73202 -.63405 1.681 -.681)">
                <stop offset="0%" stop-color="#0ABF4B"/>
                <stop offset="49.996%" stop-color="#11D77B"/>
                <stop offset="100%" stop-color="#11D0C9"/>
            </radialGradient>
        </defs>
        <g fill="none" fill-rule="evenodd">
            <path d="M0 0h20v20H0z"/>
            <path fill="url(#a)" d="M8.498 0l-2.33 1.804-2.922-.06-.847 2.858L0 6.309l.959 2.822L0 11.952l2.399 1.707.847 2.859 2.922-.06 2.33 1.804 2.33-1.804 2.922.06.847-2.859 2.399-1.707-.959-2.821.959-2.822-2.399-1.707-.847-2.858-2.922.06z" transform="matrix(1 0 0 -1 2 19.262)"/>
            <path fill="#FFF" fill-rule="nonzero" d="M7.242 8.891a.451.451 0 00-.645 0l-.543.555a.46.46 0 000 .643l2.82 2.882.187-.177-.179-.19-.187.182.425.435a.83.83 0 001.187 0l1.999-2.043 2.64-2.698a.46.46 0 000-.643l-.187.183.187-.183-.543-.555a.451.451 0 00-.645 0l-2.82 2.881.18.184.188-.182-.187-.183-1.405 1.435-2.472-2.526z"/>
        </g>
    </svg>
    <svg width="24" height="24" fill="none" viewBox="-4 -4 24 24" x="120" xmlns="http://www.w3.org/2000/svg">
        <path fill-rule="evenodd" clip-rule="evenodd" d="M8 16l-2.193-1.58-2.751.052-.798-2.504L0 10.472.903 8 0 5.528l2.258-1.496.798-2.504 2.75.052L8 0l2.193 1.58 2.751-.052.798 2.504L16 5.528 15.097 8 16 10.472l-2.258 1.496-.798 2.504-2.75-.052L8 16z" fill="url(#ea)"/>
        <path d="M4.935 6.914a.446.446 0 00-.608 0l-.51.486a.384.384 0 000 .563l2.654 2.525.177-.155-.17-.167-.175.16.4.381c.15.142.35.22.559.22a.81.81 0 00.558-.22l1.882-1.79 2.486-2.363a.384.384 0 000-.564l-.176.16.176-.16-.511-.486a.446.446 0 00-.608 0L8.415 8.03l.17.16.176-.16-.176-.16-1.323 1.258-2.327-2.213z" fill="#fff"/>
        <defs>
            <radialGradient id="ea" cx="0" cy="0" r="1" gradientUnits="userSpaceOnUse" gradientTransform="rotate(-135 11.314 4.686) scale(22.6274)">
                <stop stop-color="#0ABF4B"/>
                <stop offset=".5" stop-color="#11D77B"/>
                <stop offset="1" stop-color="#11D0C9"/>
            </radialGradient>
        </defs>
    </svg>
    <svg width="48" height="48" fill="none" viewBox="-4 -4 48 48" x="72" xmlns="http://www.w3.org/2000/svg">
        <g opacity=".01" fill="#fff">
            <path d="M7 7h26v26H7z"/>
            <path opacity=".7" d="M9.167 9.167h21.667v21.667H9.167z"/>
        </g>
        <path d="M11.168 27.629h18.664m-2.333 0l-.021-9.812c-.214-3.673-3.252-6.587-6.978-6.587s-6.764 2.914-6.978 6.587l-.02 9.812m10.386-11.985h-1.333" stroke="#000" stroke-width="1.5"/>
    </svg>
    <svg width="72" height="72" fill="none" viewBox="-4 -4 72 72" xmlns="http://www.w3.org/2000/svg">
        <path fill="#DFDFDF" fill-rule="evenodd" d="M33.478 14.367l4.475 3.26-4.475 3.26v-6.52z" clip-rule="evenodd"/>
        <path fill="#DFDFDF" fill-rule="evenodd" d="M32.087 11.636v11.98l8.22-5.989-8.22-5.99zm2.783 5.46l.727.531-.727.53v-1.06z" clip-rule="evenodd"/>
        <path stroke="#DFDFDF" stroke-width="3.5" d="M47.894 26.717a17.975 17.975 0 010 18.153 18.283 18.283 0 01-6.68 6.644 18.242 18.242 0 01-18.253 0 18.27 18.27 0 01-6.681-6.644 17.975 17.975 0 010-18.153 18.293 18.293 0 016.68-6.645 18.245 18.245 0 019.127-2.445"/>
    </svg>
    <svg width="22" height="22" fill="none" viewBox="-4 -4 22 22" x="120" y="47" xmlns="http://www.w3.org/2000/svg">
        <path fill-rule="evenodd" clip-rule="evenodd" d="M7 1.604a5.396 5.396 0 100 10.792A5.396 5.396 0 007 1.604zm0 .759a4.638 4.638 0 110 9.275 4.638 4.638 0 010-9.275zm-1.62 3.06a.583.583 0 100 1.167.583.583 0 000-1.167zm2.657.583a.583.583 0 111.166 0 .583.583 0 01-1.166 0zm.933 1.645a.38.38 0 00-.518.138 1.675 1.675 0 01-2.904 0 .38.38 0 00-.656.38 2.433 2.433 0 004.216 0 .38.38 0 00-.138-.518z" fill="#949494"/>
    </svg>
    <svg width="29" height="28" fill="none" viewBox="-4 -4 29 28" x="29" y="72" xmlns="http://www.w3.org/2000/svg">
        <path fill-rule="evenodd" clip-rule="evenodd" d="M5.941 10.154h8.993c.162 0 .294.132.294.294v9.168a.295.295 0 01-.397.277l-4.291-1.586a.294.294 0 00-.205 0l-4.292 1.586a.295.295 0 01-.397-.277v-9.168c0-.162.132-.294.295-.294z" fill="#08B700"/>
        <path fill-rule="evenodd" clip-rule="evenodd" d="M16.475 14.864H4.4a.902.902 0 01-.9-.9V1.9c0-.494.405-.899.9-.899h12.075c.495 0 .9.405.9.9v12.064c0 .495-.405.9-.9.9z" fill="#FFC800"/>
        <path d="M3.5 1h13.87L10.5 7.99l-7 6.87V1z" fill="#fff" fill-opacity=".23"/>
        <path fill-rule="evenodd" clip-rule="evenodd" d="M11.367 6.997l-.908-.198c-.787-.175-1.155-.446-1.155-.906 0-.399.452-.844 1.156-.844.505 0 .964.26 1.12.611.06.134.194.221.343.221h.927a.325.325 0 00.31-.388v-.005c-.103-.535-.362-1.014-.74-1.345-.502-.442-1.188-.675-1.985-.675-.813 0-1.5.23-1.986.667-.5.449-.764 1.088-.764 1.849 0 .594.153 1.052.48 1.442.298.353.752.585 1.43.73l.93.21c.861.194 1.224.45 1.212.91-.013.537-.738.867-1.211.867h-.027c-.354 0-1.016-.114-1.265-.653a.378.378 0 00-.341-.22h-1a.326.326 0 00-.314.373l.002.01c.202 1.339 1.213 2.076 2.844 2.076.894 0 1.635-.24 2.143-.695.506-.453.773-1.113.773-1.909 0-1.163-.608-1.82-1.974-2.128z" fill="#FFFAF0"/>
    </svg>
    <svg width="19" height="23" fill="none" viewBox="-4 -4 19 23" x="120" y="24" xmlns="http://www.w3.org/2000/svg">
        <path fill-rule="evenodd" clip-rule="evenodd" d="M1.93 7.238h7.11c.13 0 .234.104.234.233v7.25a.233.233 0 01-.314.217l-3.394-1.253a.232.232 0 00-.161 0L2.01 14.938a.233.233 0 01-.314-.218V7.47c0-.128.105-.232.233-.232" fill="#08B700"/>
        <path fill-rule="evenodd" clip-rule="evenodd" d="M10.26 10.962H.711A.713.713 0 010 10.251V.711C0 .32.32 0 .712 0h9.547c.391 0 .712.32.712.711v9.54c0 .391-.32.711-.712.711" fill="#FFC800"/>
        <path fill-rule="evenodd" clip-rule="evenodd" d="M.729 0h9.766A.73.73 0 0111 .203L.458 11.036a.722.722 0 01-.457-.668V.72C.001.324.329 0 .729 0z" fill="url(#b)"/>
        <mask id="b" style="mask-type:alpha" maskUnits="userSpaceOnUse" x="0" y="0" width="11" height="12">
            <path fill-rule="evenodd" clip-rule="evenodd" d="M.729 0h9.766A.73.73 0 0111 .203L.458 11.036a.722.722 0 01-.457-.668V.72C.001.324.329 0 .729 0z" fill="#fff"/>
        </mask>
        <g mask="url(#b)">
            <path fill-rule="evenodd" clip-rule="evenodd" d="M0 14.953h11.215V0H0v14.953z" fill="url(#jc)"/>
        </g>
        <path fill-rule="evenodd" clip-rule="evenodd" d="M6.22 4.742l-.717-.157c-.623-.138-.914-.353-.914-.716 0-.315.358-.668.914-.668.4 0 .762.206.886.484a.296.296 0 00.271.175h.733a.257.257 0 00.246-.308V3.55a1.884 1.884 0 00-.585-1.064c-.397-.35-.94-.534-1.57-.534-.643 0-1.186.183-1.57.528-.396.355-.605.86-.605 1.461 0 .47.121.833.38 1.14.235.28.595.464 1.131.578l.734.166c.682.153.969.355.96.72-.011.425-.584.685-.958.685h-.021c-.28 0-.804-.09-1-.516a.299.299 0 00-.27-.174h-.791a.258.258 0 00-.248.295v.007c.16 1.06.96 1.642 2.25 1.642.706 0 1.292-.19 1.694-.549.4-.358.612-.88.612-1.51 0-.92-.482-1.439-1.562-1.682" fill="#FFFAF0"/>
        <defs>
            <linearGradient id="ja" x1="5.621" y1="-5.08" x2="-5.023" y2="5.678" gradientUnits="userSpaceOnUse">
                <stop stop-opacity=".01"/>
                <stop offset="1"/>
            </linearGradient>
            <linearGradient id="jc" x1="6.251" y1="-4.181" x2="-4.554" y2="3.978" gradientUnits="userSpaceOnUse">
                <stop stop-color="#FFD94C"/>
                <stop offset="1" stop-color="#FFC800"/>
            </linearGradient>
        </defs>
    </svg>
</svg>
