<svg xmlns="http://www.w3.org/2000/svg" viewBox="0 0 1000 1000">
    <path
        d="M491.5 644.2c-9.4-18.6-1.9-41.3 16.7-50.6 18.5-9.3 41.1-1.9 50.5 16.5 14.2 28.4 19 60.6 14.1 91.3-4.8 30.4-18.7 59.3-41.7 82.2l-2 1.9-160.7 160.7-.1.1-2.1 1.9c-28.8 27.9-66.3 41.8-103.7 41.8-38.1 0-76.5-14.7-105.6-43.7h-.2l-.1-.1L53.7 843.4h-.1l-2-2.2C23.9 812.3 10 774.8 10 737.5c0-38.3 14.6-76.6 43.6-105.6l.1-.2h-.1l.1-.2 1.9-1.6 160.6-160.7.1-.2h-.1c23.1-23 52-36.9 82.2-41.6 30.9-5 63-.3 91.4 13.9 18.5 9.5 26 32 16.6 50.6-9.3 18.4-32 26-50.5 16.5-14.1-7.1-30.4-9.5-45.7-7.1-14.8 2.4-29.1 9.3-40.6 20.8L108.8 682.9 107 685h-.1c-14.4 14.4-21.6 33.5-21.6 52.6 0 18.4 6.8 36.8 20.2 50.9l1.5 1.5h.1L210 893.1h.1l-.1.1c14.4 14.3 33.5 21.4 52.5 21.4 18.5 0 36.9-6.7 51-20l1.5-1.5h.2l160.7-160.7 1.8-1.9c11.5-11.5 18.5-25.8 20.9-40.7 2.4-15.5.1-31.5-7.1-45.6zm-125.3 42.9c-14.8 14.7-38.6 14.7-53.4 0-14.7-14.7-14.7-38.5 0-53.4l321-320.9c14.8-14.7 38.7-14.7 53.4 0 14.7 14.7 14.7 38.7 0 53.2l-321 321.1zm0 261.1c-14.8 12.8-37.2 12.1-51.2-1.9l51.2 1.9zm-314.6-107c-12.6-14.7-12-37.2 2-51.2l-2 51.2zm456.9-485.4c9.3 18.6 1.9 41.3-16.6 50.6-18.5 9.3-41.2 1.9-50.5-16.5-14.4-28.4-19.1-60.6-14.1-91.3 4.8-30.3 18.7-59.3 41.7-82.4l1.9-1.6L631.6 53.8h-.1l.2-.1 2.1-1.9C662.7 23.9 700.2 10 737.5 10c38.2 0 76.6 14.7 105.7 43.7h.2l.1.1 102.8 102.9.2.1 1.9 2.1c27.8 28.8 41.7 66.4 41.7 103.5 0 38.1-14.6 76.6-43.6 105.8h-.2.2l-.2.2-1.9 1.6-160.7 160.9c-22.9 23.1-51.8 37-82.2 41.8-30.8 4.8-63 .2-91.3-14.1-18.4-9.3-25.8-31.9-16.5-50.5 9.4-18.4 32.1-26 50.5-16.5 14.2 7.1 30.3 9.5 45.7 7.1 14.7-2.4 29.1-9.5 40.7-21l.1.2L891.2 317l1.8-1.9h.2c14.4-14.4 21.5-33.5 21.5-52.6 0-18.4-6.7-36.8-20-50.9l-1.5-1.5h-.2L790 107.3v-.3l.1-.2c-14.4-14.3-33.4-21.4-52.6-21.4-18.3 0-36.8 6.7-51 20.1l-1.4 1.5-.1.1-.1-.2-.1.2-160.7 160.6-1.9 1.9c-11.5 11.5-18.5 26-20.8 40.7-2.5 15.4 0 31.3 7.1 45.5zm125.3-304C648.7 39 671 39.5 685 53.7l-51.2-1.9zm314.5 107.1c12.8 14.9 12.1 37.2-1.9 51.2l1.9-51.2z" />
</svg>