<svg version="1.1" id="prefix___x32_" xmlns="http://www.w3.org/2000/svg" x="0" y="0" viewBox="0 0 912 912"
	style="width:912px;height:912px" xml:space="preserve" opacity="1">
	<style>
		.prefix__st0 {
			fill: #fff
		}
	</style>
	<path transform="translate(200, 200)" class="prefix__st0"
		d="M322.415 350.191L163.017 190.797l-25.17-8.091c-28.028-9.017-59.533-1.726-82.132 18.999l-8.308 7.62 128.24 128.24 128.244 128.24 7.616-8.308c20.725-22.608 28.013-54.106 18.999-82.136l-8.091-25.17zM20.022 454.547L0 510.788l56.249-20.015 124.564-124.572-36.223-36.226zM446.792 114.713L398.489 66.42 333.286 1.212l-30.187 30.183 178.717 178.722L512 179.927zM173.884 179.927l159.402 159.394 113.506-144.9-128-128.001z"
		fill="#fff" />
</svg>